<?xml version="1.0" standalone="no"?>
<!DOCTYPE svg PUBLIC "-//W3C//DTD SVG 20010904//EN"
 "http://www.w3.org/TR/2001/REC-SVG-20010904/DTD/svg10.dtd">
<svg version="1.0" xmlns="http://www.w3.org/2000/svg"
 width="800.000000pt" height="800.000000pt" viewBox="0 0 800.000000 800.000000"
 preserveAspectRatio="xMidYMid meet">

<g transform="translate(0.000000,800.000000) scale(0.100000,-0.100000)"
fill="#000000" stroke="none">
<path d="M685 6920 l-350 -5 -70 -34 c-79 -39 -165 -115 -202 -179 -106 -181
-73 -416 78 -556 66 -61 95 -79 177 -107 53 -18 103 -19 1186 -19 l1131 0 68
24 c372 132 405 642 54 828 l-82 43 -820 5 c-451 3 -978 3 -1170 0z"/>
<path d="M5175 6635 c-259 -41 -520 -153 -733 -312 -80 -61 -215 -192 -279
-273 -191 -238 -321 -547 -348 -828 l-7 -70 112 -58 c430 -219 776 -575 978
-1004 257 -544 268 -1196 32 -1742 l-38 -87 114 -67 c196 -115 428 -316 566
-490 209 -262 361 -582 432 -904 42 -192 49 -276 44 -532 l-5 -238 972 0 972
0 7 1108 c7 1294 6 1314 -80 1570 -145 428 -451 776 -847 962 -176 82 -328
128 -484 146 -35 3 -63 9 -63 11 0 3 36 44 81 93 238 260 386 568 430 896 17
131 6 424 -21 549 -65 304 -210 574 -429 798 -254 261 -559 418 -919 472 -122
18 -372 18 -487 0z"/>
<path d="M2695 4781 c-237 -44 -400 -105 -593 -223 -249 -152 -459 -384 -592
-653 -123 -249 -159 -395 -167 -671 -3 -111 -1 -214 6 -268 44 -329 198 -648
436 -903 48 -53 72 -85 63 -87 -7 -2 -38 -7 -68 -10 -364 -41 -755 -249 -1010
-538 -220 -249 -357 -550 -399 -878 -9 -66 -31 -433 -31 -506 0 -12 419 -14
2588 -14 l2589 0 6 113 c24 406 -23 658 -179 956 -133 256 -331 473 -574 628
-165 106 -426 205 -615 233 -118 17 -116 13 -48 83 191 196 308 387 388 632
61 184 79 297 79 490 1 226 -27 392 -94 574 -194 528 -639 908 -1206 1031
-142 31 -438 37 -579 11z"/>
</g>
</svg>
