<svg width="22" height="22" viewBox="0 0 22 22" fill="none" xmlns="http://www.w3.org/2000/svg">
<g opacity="0.5">
<path d="M9.30063 2.97748C9.57303 2.30652 10.2313 1.83337 11 1.83337C11.7687 1.83337 12.427 2.30652 12.6994 2.97748C15.4185 3.72236 17.4167 6.21119 17.4167 9.16671V13.4725L19.096 15.9916C19.2836 16.2729 19.3011 16.6345 19.1415 16.9326C18.982 17.2306 18.6714 17.4167 18.3333 17.4167H14.1758C13.9534 18.9715 12.6163 20.1667 11 20.1667C9.3837 20.1667 8.04656 18.9715 7.82416 17.4167H3.66667C3.32861 17.4167 3.01798 17.2306 2.85847 16.9326C2.69895 16.6345 2.71643 16.2729 2.90396 15.9916L4.58333 13.4725V9.16671C4.58333 6.21119 6.58151 3.72236 9.30063 2.97748ZM9.70324 17.4167C9.892 17.9508 10.4013 18.3334 11 18.3334C11.5987 18.3334 12.108 17.9508 12.2968 17.4167H9.70324ZM11 4.58337C8.4687 4.58337 6.41667 6.6354 6.41667 9.16671V13.75C6.41667 13.931 6.3631 14.1079 6.26271 14.2585L5.37948 15.5834H16.6205L15.7373 14.2585C15.6369 14.1079 15.5833 13.931 15.5833 13.75V9.16671C15.5833 6.6354 13.5313 4.58337 11 4.58337Z" fill="white"/>
</g>
<circle cx="17" cy="5" r="3.5" fill="#FFA048" stroke="#2A2B2F"/>
</svg>
