<svg width="22" height="22" viewBox="0 0 22 22" fill="none" xmlns="http://www.w3.org/2000/svg">
<path d="M9.16671 3.66667C6.12914 3.66667 3.66671 6.1291 3.66671 9.16667C3.66671 12.2042 6.12914 14.6667 9.16671 14.6667C12.2043 14.6667 14.6667 12.2042 14.6667 9.16667C14.6667 6.1291 12.2043 3.66667 9.16671 3.66667ZM1.83337 9.16667C1.83337 5.11658 5.11662 1.83333 9.16671 1.83333C13.2168 1.83333 16.5 5.11658 16.5 9.16667C16.5 10.8613 15.9252 12.4217 14.9599 13.6635L19.8982 18.6018C20.2562 18.9598 20.2562 19.5402 19.8982 19.8982C19.5402 20.2562 18.9598 20.2562 18.6019 19.8982L13.6635 14.9599C12.4218 15.9252 10.8614 16.5 9.16671 16.5C5.11662 16.5 1.83337 13.2168 1.83337 9.16667Z" fill="#1C1D22"/>
</svg>
