<svg width="20" height="20" viewBox="0 0 20 20" fill="none" xmlns="http://www.w3.org/2000/svg">
<g opacity="0.5">
<path d="M10 1.66675C10.4602 1.66675 10.8333 2.03984 10.8333 2.50008V3.33341C10.8333 3.79365 10.4602 4.16675 10 4.16675C9.53977 4.16675 9.16667 3.79365 9.16667 3.33341V2.50008C9.16667 2.03984 9.53977 1.66675 10 1.66675ZM15.8926 4.10752C16.218 4.43296 16.218 4.96059 15.8926 5.28603L15.3033 5.87529C14.9779 6.20072 14.4503 6.20072 14.1248 5.87529C13.7994 5.54985 13.7994 5.02221 14.1248 4.69677L14.7141 4.10752C15.0395 3.78208 15.5672 3.78208 15.8926 4.10752ZM4.10744 4.10752C4.43288 3.78208 4.96052 3.78208 5.28595 4.10752L5.87521 4.69677C6.20065 5.02221 6.20065 5.54985 5.87521 5.87529C5.54977 6.20072 5.02214 6.20072 4.6967 5.87529L4.10744 5.28603C3.78201 4.96059 3.78201 4.43296 4.10744 4.10752ZM10 6.66675C8.15905 6.66675 6.66667 8.15913 6.66667 10.0001C6.66667 11.841 8.15905 13.3334 10 13.3334C11.841 13.3334 13.3333 11.841 13.3333 10.0001C13.3333 8.15913 11.841 6.66675 10 6.66675ZM5 10.0001C5 7.23866 7.23858 5.00008 10 5.00008C12.7614 5.00008 15 7.23866 15 10.0001C15 12.7615 12.7614 15.0001 10 15.0001C7.23858 15.0001 5 12.7615 5 10.0001ZM1.66667 10.0001C1.66667 9.53984 2.03977 9.16675 2.5 9.16675H3.33334C3.79358 9.16675 4.16667 9.53984 4.16667 10.0001C4.16667 10.4603 3.79358 10.8334 3.33334 10.8334H2.5C2.03977 10.8334 1.66667 10.4603 1.66667 10.0001ZM15.8333 10.0001C15.8333 9.53984 16.2064 9.16675 16.6667 9.16675H17.5C17.9602 9.16675 18.3333 9.53984 18.3333 10.0001C18.3333 10.4603 17.9602 10.8334 17.5 10.8334H16.6667C16.2064 10.8334 15.8333 10.4603 15.8333 10.0001ZM4.6967 14.1249C5.02214 13.7994 5.54977 13.7994 5.87521 14.1249C6.20065 14.4503 6.20065 14.9779 5.87521 15.3034L5.28595 15.8926C4.96052 16.2181 4.43288 16.2181 4.10744 15.8926C3.78201 15.5672 3.78201 15.0396 4.10744 14.7141L4.6967 14.1249ZM14.1248 15.3034C13.7994 14.9779 13.7994 14.4503 14.1248 14.1249C14.4503 13.7994 14.9779 13.7994 15.3033 14.1249L15.8926 14.7141C16.218 15.0396 16.218 15.5672 15.8926 15.8926C15.5672 16.2181 15.0395 16.2181 14.7141 15.8926L14.1248 15.3034ZM10 15.8334C10.4602 15.8334 10.8333 16.2065 10.8333 16.6667V17.5001C10.8333 17.9603 10.4602 18.3334 10 18.3334C9.53977 18.3334 9.16667 17.9603 9.16667 17.5001V16.6667C9.16667 16.2065 9.53977 15.8334 10 15.8334Z" fill="white"/>
</g>
</svg>
