<svg width="20" height="20" viewBox="0 0 20 20" fill="none" xmlns="http://www.w3.org/2000/svg">
<path d="M10 1.66669C10.4602 1.66669 10.8333 2.03978 10.8333 2.50002V3.33335C10.8333 3.79359 10.4602 4.16669 10 4.16669C9.53976 4.16669 9.16666 3.79359 9.16666 3.33335V2.50002C9.16666 2.03978 9.53976 1.66669 10 1.66669ZM15.8926 4.10746C16.218 4.43289 16.218 4.96053 15.8926 5.28597L15.3033 5.87522C14.9779 6.20066 14.4503 6.20066 14.1248 5.87522C13.7994 5.54979 13.7994 5.02215 14.1248 4.69671L14.7141 4.10746C15.0395 3.78202 15.5672 3.78202 15.8926 4.10746ZM4.10744 4.10746C4.43287 3.78202 4.96051 3.78202 5.28595 4.10746L5.8752 4.69671C6.20064 5.02215 6.20064 5.54979 5.8752 5.87523C5.54977 6.20066 5.02213 6.20066 4.69669 5.87523L4.10744 5.28597C3.782 4.96053 3.782 4.4329 4.10744 4.10746ZM10 6.66669C8.15905 6.66669 6.66666 8.15907 6.66666 10C6.66666 11.841 8.15905 13.3334 10 13.3334C11.8409 13.3334 13.3333 11.841 13.3333 10C13.3333 8.15907 11.8409 6.66669 10 6.66669ZM5 10C5 7.2386 7.23857 5.00002 10 5.00002C12.7614 5.00002 15 7.2386 15 10C15 12.7614 12.7614 15 10 15C7.23857 15 5 12.7614 5 10ZM1.66666 10C1.66666 9.53978 2.03976 9.16669 2.5 9.16669H3.33333C3.79357 9.16669 4.16666 9.53978 4.16666 10C4.16666 10.4603 3.79357 10.8334 3.33333 10.8334H2.5C2.03976 10.8334 1.66666 10.4603 1.66666 10ZM15.8333 10C15.8333 9.53978 16.2064 9.16669 16.6667 9.16669H17.5C17.9602 9.16669 18.3333 9.53978 18.3333 10C18.3333 10.4603 17.9602 10.8334 17.5 10.8334H16.6667C16.2064 10.8334 15.8333 10.4603 15.8333 10ZM4.69669 14.1248C5.02213 13.7994 5.54977 13.7994 5.8752 14.1248C6.20064 14.4502 6.20064 14.9779 5.8752 15.3033L5.28595 15.8926C4.96051 16.218 4.43287 16.218 4.10744 15.8926C3.782 15.5671 3.782 15.0395 4.10744 14.7141L4.69669 14.1248ZM14.1248 15.3033C13.7994 14.9779 13.7994 14.4502 14.1248 14.1248C14.4503 13.7994 14.9779 13.7994 15.3033 14.1248L15.8926 14.7141C16.218 15.0395 16.218 15.5671 15.8926 15.8926C15.5672 16.218 15.0395 16.218 14.7141 15.8926L14.1248 15.3033ZM10 15.8334C10.4602 15.8334 10.8333 16.2064 10.8333 16.6667V17.5C10.8333 17.9603 10.4602 18.3334 10 18.3334C9.53976 18.3334 9.16666 17.9603 9.16666 17.5V16.6667C9.16666 16.2064 9.53976 15.8334 10 15.8334Z" fill="#1C1D22"/>
</svg>
